P3
8 8
15
00 00 00  00 00 00  00 00 00  00 00 00  00 00 00  00 00 00  00 00 00  00 00 00  
00 00 00  00 00 00  00 00 00  00 00 00  00 00 00  00 00 00  00 00 00  00 00 00  
15 10 00  15 10 00  15 10 00  15 10 00  15 10 00  15 10 00  15 10 00  15 10 00  
15 05 00  15 05 00  15 05 00  15 05 00  15 05 00  15 05 00  15 05 00  15 05 00  
15 00 00  15 00 00  15 00 00  15 00 00  15 00 00  15 00 00  15 00 00  15 00 00  
15 00 00  15 00 00  15 00 00  15 00 00  15 00 00  15 00 00  15 00 00  15 00 00  
15 00 00  15 00 00  15 00 00  15 00 00  15 00 00  15 00 00  15 00 00  15 00 00  
15 00 00  15 00 00  15 00 00  15 00 00  15 00 00  15 00 00  15 00 00  15 00 00  
